<?xml version="1.0" standalone="no"?>
<!DOCTYPE svg PUBLIC "-//W3C//DTD SVG 20010904//EN"
 "http://www.w3.org/TR/2001/REC-SVG-20010904/DTD/svg10.dtd">
<svg version="1.0" xmlns="http://www.w3.org/2000/svg"
 width="853.000000pt" height="1280.000000pt" viewBox="0 0 853.000000 1280.000000"
 preserveAspectRatio="xMidYMid meet">
<metadata>
Created by potrace 1.15, written by Peter Selinger 2001-2017
</metadata>
<g transform="translate(0.000000,1280.000000) scale(0.100000,-0.100000)"
fill="#ffffff" stroke="none">
<path d="M4060 12789 c-194 -22 -402 -81 -577 -164 -472 -224 -789 -626 -894
-1135 l-24 -115 0 -2575 c0 -2452 1 -2579 18 -2665 145 -710 755 -1260 1492
-1345 327 -37 671 21 975 166 473 226 789 629 892 1137 l23 112 0 2575 c0
2448 -1 2579 -18 2665 -116 576 -556 1066 -1134 1264 -227 78 -508 108 -753
80z"/>
<path d="M301 8004 c-158 -42 -262 -156 -292 -319 -7 -38 -9 -312 -6 -839 3
-648 7 -805 21 -921 64 -538 177 -928 391 -1350 184 -361 380 -630 670 -920
529 -528 1216 -906 2020 -1110 116 -29 231 -56 258 -60 l47 -7 0 -854 0 -854
-657 0 c-717 0 -743 -2 -851 -57 -69 -35 -155 -127 -176 -189 -53 -155 36
-357 203 -463 103 -66 -69 -61 2341 -61 2377 0 2235 -3 2349 54 64 33 144 122
173 194 19 49 23 75 23 182 0 120 -1 128 -32 192 -36 76 -100 146 -165 179
-95 48 -100 49 -820 49 l-678 0 0 854 c0 805 1 855 18 860 9 2 33 7 52 11 406
77 934 271 1313 484 1088 609 1778 1567 1971 2736 48 288 51 352 51 1150 l0
760 -23 58 c-63 155 -190 243 -367 254 -147 10 -260 -32 -350 -129 -32 -34
-63 -80 -76 -115 l-24 -58 -6 -785 c-6 -737 -11 -850 -39 -1050 -100 -705
-417 -1330 -913 -1794 -538 -505 -1229 -810 -2052 -908 -146 -17 -674 -17
-820 0 -663 79 -1253 297 -1735 642 -683 489 -1111 1202 -1230 2050 -28 194
-33 327 -39 1060 l-6 785 -24 58 c-44 111 -161 208 -282 236 -62 15 -175 12
-238 -5z"/>
</g>
</svg>
