<?xml version="1.0"?>
<svg xmlns="http://www.w3.org/2000/svg" xmlns:xlink="http://www.w3.org/1999/xlink" xmlns:svgjs="http://svgjs.com/svgjs" version="1.1" width="512" height="512" x="0" y="0" viewBox="0 0 512 512" style="enable-background:new 0 0 512 512" xml:space="preserve" class=""><g>
<g xmlns="http://www.w3.org/2000/svg">
	<g>
		<g>
			<path d="M120,203H80.481C87.157,112,163.326,40,256,40c73.334,0,139.692,46.19,165.125,114.939     c3.832,10.359,15.336,15.65,25.697,11.819c10.359-3.833,15.651-15.337,11.819-25.697c-15.158-40.976-42.087-76.04-77.874-101.402     C344.157,13.714,301.013,0,256,0c-57.695,0-111.938,22.468-152.735,63.265C63,103.53,40.605,156.894,40.027,213.747     C16.125,227.597,0,253.443,0,283v68c0,44.112,35.888,80,80,80h40c11.046,0,20-8.954,20-20V223C140,211.954,131.046,203,120,203z      M100,391H80c-22.056,0-40-17.944-40-40v-68c0-22.056,17.944-40,40-40h20V391z" fill="#ffffff" data-original="#000000" style="" class=""/>
			<path d="M432,203h-40c-11.046,0-20,8.954-20,20v137v51v21c0,11.028-8.972,20-20,20h-61v0.634     C284.178,440.331,271.064,432,256,432c-22.091,0-40,17.909-40,40s17.909,40,40,40c15.064,0,28.178-8.331,35-20.634V492h61     c33.084,0,60-26.916,60-60v-1h20c44.112,0,80-35.888,80-80v-68C512,238.888,476.112,203,432,203z M472,351     c0,22.056-17.944,40-40,40h-20v-31V243h20c22.056,0,40,17.944,40,40V351z" fill="#ffffff" data-original="#000000" style="" class=""/>
		</g>
	</g>
</g>
<g xmlns="http://www.w3.org/2000/svg">
</g>
<g xmlns="http://www.w3.org/2000/svg">
</g>
<g xmlns="http://www.w3.org/2000/svg">
</g>
<g xmlns="http://www.w3.org/2000/svg">
</g>
<g xmlns="http://www.w3.org/2000/svg">
</g>
<g xmlns="http://www.w3.org/2000/svg">
</g>
<g xmlns="http://www.w3.org/2000/svg">
</g>
<g xmlns="http://www.w3.org/2000/svg">
</g>
<g xmlns="http://www.w3.org/2000/svg">
</g>
<g xmlns="http://www.w3.org/2000/svg">
</g>
<g xmlns="http://www.w3.org/2000/svg">
</g>
<g xmlns="http://www.w3.org/2000/svg">
</g>
<g xmlns="http://www.w3.org/2000/svg">
</g>
<g xmlns="http://www.w3.org/2000/svg">
</g>
<g xmlns="http://www.w3.org/2000/svg">
</g>
</g></svg>
