<?xml version="1.0"?>
<svg xmlns="http://www.w3.org/2000/svg" xmlns:xlink="http://www.w3.org/1999/xlink" xmlns:svgjs="http://svgjs.com/svgjs" version="1.1" width="512" height="512" x="0" y="0" viewBox="0 0 64 64" style="enable-background:new 0 0 512 512" xml:space="preserve" class=""><g><g xmlns="http://www.w3.org/2000/svg" id="nitrogen"><path d="m57.53 21.33 1.42-1.41-4.95-4.95-.89.88-.53.53z" fill="#ffffff" data-original="#000000" style="" class=""/><path d="m14.81 38.91h2.005v20h-2.005z" transform="matrix(.707 -.707 .707 .707 -29.953 25.507)" fill="#ffffff" data-original="#000000" style="" class=""/><path d="m5.21 42.96a1 1 0 0 0 -.71 1.71l15.55 15.55a1.008 1.008 0 0 0 1.42 0 1 1 0 0 0 0-1.41l-15.56-15.56a.984.984 0 0 0 -.7-.29z" fill="#ffffff" data-original="#000000" style="" class=""/><path d="m54 9.31-5.66 5.66 1.41 1.41.71-.7.94-.95 4.01-4z" fill="#ffffff" data-original="#000000" style="" class=""/><path d="m49.75 19.21-4.24-4.24a7.005 7.005 0 0 0 -8.66-.98 32.765 32.765 0 0 1 7.95 5.93 32.765 32.765 0 0 1 5.93 7.95 7.005 7.005 0 0 0 -.98-8.66z" fill="#ffffff" data-original="#000000" style="" class=""/><path d="m61.07 9.31a.99.99 0 0 0 .29-.71 1.027 1.027 0 0 0 -.29-.7l-4.25-4.24a1.014 1.014 0 0 0 -1.41 0l-2.12 2.12 5.66 5.65z" fill="#ffffff" data-original="#000000" style="" class=""/><path d="m49.32 29.54a29.857 29.857 0 0 0 -5.93-8.21 30.006 30.006 0 0 0 -8.21-5.93l-18.94 18.94a29.992 29.992 0 0 0 5.94 8.21 29.967 29.967 0 0 0 8.2 5.93zm-22.486 2.077a1 1 0 0 1 .924-.617h6.07l-3.242-3.243 1.414-1.414 4.949 4.95a1 1 0 0 1 -.707 1.707h-6.07l3.242 3.243-1.414 1.414-4.949-4.95a1 1 0 0 1 -.217-1.09z" fill="#ffffff" data-original="#000000" style="" class=""/><path d="m28.88 49.98a32.687 32.687 0 0 1 -8.12-6.02 32.938 32.938 0 0 1 -6.02-8.12l-3.88 3.88 14.14 14.14z" fill="#ffffff" data-original="#000000" style="" class=""/></g></g></svg>
