<?xml version="1.0"?>
<svg xmlns="http://www.w3.org/2000/svg" xmlns:xlink="http://www.w3.org/1999/xlink" xmlns:svgjs="http://svgjs.com/svgjs" version="1.1" width="512" height="512" x="0" y="0" viewBox="0 0 512 512" style="enable-background:new 0 0 512 512" xml:space="preserve" class=""><g><g xmlns="http://www.w3.org/2000/svg"><path d="m107.705 271.516c1.728 0 3.463-.594 4.877-1.806 3.145-2.696 3.509-7.43.813-10.575-36.36-42.42-54.104-85.264-60.142-102.034l24.202-6.051c2.366-.592 4.297-2.297 5.177-4.572.879-2.275.598-4.835-.755-6.865-35.623-53.435-48.859-102.815-53.128-123.197 24.399 4.097 90.993 18.418 171.59 61.817 3.647 1.964 8.196.6 10.159-3.048 1.964-3.647.599-8.195-3.048-10.159-104.328-56.178-183.846-64.655-187.18-64.989-2.266-.226-4.521.592-6.114 2.225-1.594 1.634-2.357 3.904-2.074 6.168.322 2.58 8.117 61.584 51.555 130.613l-21.883 5.471c-1.972.493-3.659 1.765-4.676 3.525s-1.275 3.857-.717 5.811c.673 2.356 17.042 58.341 65.646 115.046 1.484 1.732 3.584 2.62 5.698 2.62z" fill="#ffffff" data-original="#000000" style=""/><path d="m472.956 211.341c-14.271-30.241-34.141-59.712-59.057-87.594-42.321-47.359-84.058-73.44-85.814-74.527-1.999-1.238-4.461-1.466-6.654-.618-2.192.848-3.86 2.675-4.505 4.935l-12.445 43.557c-6.174-6.055-15.424-14.539-27.793-24.331-40.424-32.003-82.125-52.56-109.988-64.17-3.824-1.592-8.215.214-9.808 4.039-1.593 3.823.215 8.214 4.038 9.808 48.688 20.287 84.552 44.794 106.064 61.781 23.34 18.43 35.303 32.238 35.417 32.37 1.796 2.096 4.597 3.034 7.296 2.446 2.696-.589 4.852-2.613 5.61-5.267l13.202-46.206c14.149 9.902 44.263 32.68 74.196 66.177 23.953 26.805 43.022 55.067 56.676 84.001 16.977 35.976 25.585 73.121 25.585 110.403 0 93.107-75.748 168.855-168.854 168.855-47.059 0-93.396-17.437-134.001-50.426-40.439-32.854-73.608-80.051-96.273-136.871l31.341-6.268c4.062-.812 6.696-4.763 5.884-8.825-.813-4.061-4.765-6.697-8.825-5.883l-40.081 8.016c-2.157.432-4.016 1.788-5.084 3.711-1.069 1.923-1.24 4.218-.467 6.277 23.623 62.994 59.602 115.377 104.047 151.486 43.308 35.185 92.915 53.783 143.458 53.783 101.378 0 183.854-82.477 183.854-183.855.001-39.512-9.09-78.811-27.019-116.804z" fill="#ffffff" data-original="#000000" style=""/><path d="m298.781 155.144c1.853-3.705.351-8.21-3.354-10.062-2.683-1.342-66.553-32.856-139.628-32.856-2.673 0-5.145 1.423-6.487 3.736-1.342 2.312-1.352 5.164-.025 7.485l26.587 46.528-45.185 6.455c-2.434.348-4.542 1.865-5.644 4.063-1.102 2.197-1.057 4.795.121 6.953l48.344 88.694c-5.937 16.229-9.179 33.746-9.179 52.005 0 83.698 68.093 151.79 151.791 151.79 83.697 0 151.79-68.093 151.79-151.79s-68.093-151.791-151.79-151.791c-58.709 0-109.737 33.506-134.975 82.397l-37.637-69.001 45.414-6.488c2.459-.351 4.585-1.898 5.677-4.129 1.092-2.232 1.007-4.859-.226-7.016l-25.447-44.533c64.034 3.448 119.208 30.623 119.794 30.916 3.704 1.849 8.207.349 10.059-3.356zm17.34 36.211c75.426 0 136.79 61.364 136.79 136.791s-61.364 136.79-136.79 136.79c-75.427 0-136.791-61.364-136.791-136.79s61.364-136.791 136.791-136.791z" fill="#ffffff" data-original="#000000" style=""/><path d="m292.589 328.145c0 12.976 10.557 23.532 23.532 23.532s23.532-10.556 23.532-23.532-10.557-23.532-23.532-23.532-23.532 10.556-23.532 23.532zm32.064 0c0 4.705-3.828 8.532-8.532 8.532s-8.532-3.828-8.532-8.532c0-4.705 3.828-8.532 8.532-8.532s8.532 3.827 8.532 8.532z" fill="#ffffff" data-original="#000000" style=""/><path d="m250.032 408.042c1.399 1.159 3.094 1.724 4.779 1.724 2.157 0 4.297-.926 5.781-2.717 2.642-3.19 2.197-7.918-.994-10.56-2.006-1.661-3.926-3.402-5.761-5.211l25.954-14.984c3.85-2.223 7.25-.74 8.532 0 1.283.74 4.266 2.943 4.266 7.389v29.897c-2.465-.688-4.916-1.48-7.347-2.385-3.881-1.444-8.2.531-9.645 4.413-1.444 3.882.531 8.2 4.414 9.645 11.743 4.37 23.892 6.585 36.11 6.585 57.177 0 103.693-46.517 103.693-103.694 0-30.987-13.706-60.109-37.604-79.897-3.19-2.641-7.917-2.198-10.56.993-2.642 3.19-2.197 7.918.994 10.56 2.006 1.661 3.926 3.402 5.761 5.211l-25.953 14.984c-3.85 2.223-7.25.74-8.532 0s-4.266-2.943-4.266-7.389v-29.896c2.465.688 4.916 1.48 7.347 2.385 3.882 1.444 8.2-.531 9.645-4.413 1.444-3.882-.531-8.2-4.414-9.645-11.742-4.37-23.891-6.585-36.11-6.585-57.177 0-103.694 46.517-103.694 103.694-.001 30.986 13.705 60.108 37.604 79.896zm-22.605-79.897c0-7.729.996-15.229 2.863-22.382l25.968 14.992c3.85 2.223 4.266 5.908 4.266 7.389s-.416 5.166-4.266 7.389l-25.97 14.994c-1.879-7.226-2.861-14.737-2.861-22.382zm112.226 85.519v-29.981c0-4.446 2.983-6.649 4.266-7.389 1.283-.741 4.682-2.223 8.532 0l25.919 14.965c-10.638 10.494-23.907 18.325-38.717 22.405zm65.161-85.519c0 7.729-.996 15.229-2.863 22.382l-25.968-14.993c-3.851-2.223-4.266-5.908-4.266-7.39 0-1.481.416-5.166 4.266-7.389l25.97-14.994c1.88 7.228 2.861 14.739 2.861 22.384zm-80.161-88.256v32.719c0 8.507 4.398 16.126 11.766 20.38 3.684 2.127 7.725 3.19 11.766 3.19s8.083-1.063 11.766-3.19l28.359-16.373c3.326 4.65 6.184 9.597 8.542 14.773l-28.368 16.378c-7.368 4.253-11.766 11.872-11.766 20.379s4.398 16.126 11.766 20.38l28.352 16.369c-2.382 5.211-5.253 10.152-8.555 14.765l-28.329-16.356c-7.368-4.254-16.165-4.254-23.532 0s-11.766 11.872-11.766 20.38v32.744c-2.809.269-5.654.412-8.532.412-2.849 0-5.695-.155-8.532-.438v-32.719c0-8.507-4.398-16.126-11.766-20.38-7.368-4.253-16.165-4.254-23.532 0l-28.359 16.373c-3.326-4.65-6.184-9.596-8.542-14.773l28.369-16.378c7.368-4.254 11.766-11.872 11.766-20.38 0-8.507-4.398-16.126-11.766-20.379l-28.352-16.369c2.382-5.211 5.253-10.152 8.556-14.765l28.329 16.355c3.684 2.127 7.725 3.19 11.766 3.19s8.083-1.064 11.766-3.19c7.368-4.254 11.766-11.872 11.766-20.38v-32.744c2.809-.269 5.654-.412 8.532-.412 2.847.002 5.693.157 8.53.439zm-70.782 25.143c10.639-10.495 23.908-18.326 38.718-22.406v29.981c0 4.446-2.983 6.649-4.266 7.389s-4.683 2.222-8.532 0z" fill="#ffffff" data-original="#000000" style=""/></g></g></svg>
